# xmcd
#
# Track frame offsets:
#	150
#	16098
#	32328
#	46855
#	63841
#	79991
#	102856
#	118553
#	135946
#	150316
#	169625
#
# Disc length: 2500 seconds
#
# Revision: 1
# Processed by: cddbd v1.5.2PL0 Copyright (c) Steve Scherf et al.
# Submitted via: audiograbber 1.83.01
#
DISCID=6f09c20b
DTITLE=Sam Moore - I Don't Need Mexico
DYEAR=1900
DGENRE=Country
TTITLE0=Home With You
TTITLE1=That's A Gift
TTITLE2=I Don't Need Mexico
TTITLE3=Death Do Us Part
TTITLE4=Redneck Man
TTITLE5=I Should've Stopped You
TTITLE6=Turn Your Blinker On
TTITLE7=The R.O.W.
TTITLE8=I Love Her and She Loves Me
TTITLE9=The Opposite of Life
TTITLE10=Big Buck Fever
EXTD=
EXTT0=
EXTT1=
EXTT2=
EXTT3=
EXTT4=
EXTT5=
EXTT6=
EXTT7=
EXTT8=
EXTT9=
EXTT10=
PLAYORDER=
